<svg xmlns="http://www.w3.org/2000/svg" viewBox="0 0 800 1200" preserveAspectRatio="xMidYMid slice"><rect width="800" height="1200" fill="url(#sky)"/><defs><linearGradient id="sky" x1="0" y1="0" x2="0" y2="1"><stop offset="0" stop-color="#2f6fb0"/><stop offset=".55" stop-color="#6fa9d8"/><stop offset="1" stop-color="#d7ecff"/></linearGradient></defs><defs><radialGradient id="g180"><stop offset="0" stop-color="#ffffff" stop-opacity=".9"/><stop offset="1" stop-color="#ffffff" stop-opacity="0"/></radialGradient></defs><circle cx="180" cy="210" r="160" fill="url(#g180)"/><circle cx="180" cy="210" r="40" fill="#fff7e0"/><rect x="-20" y="669" width="44" height="230" fill="#26445f"/><rect x="27" y="674" width="69" height="225" fill="#26445f"/><rect x="107" y="675" width="65" height="224" fill="#26445f"/><rect x="177" y="576" width="49" height="323" fill="#26445f"/><rect x="238" y="633" width="73" height="266" fill="#26445f"/><rect x="315" y="625" width="76" height="274" fill="#26445f"/><rect x="401" y="663" width="62" height="236" fill="#26445f"/><rect x="474" y="658" width="77" height="241" fill="#26445f"/><rect x="559" y="564" width="62" height="335" fill="#26445f"/><rect x="629" y="612" width="51" height="287" fill="#26445f"/><rect x="685" y="580" width="58" height="319" fill="#26445f"/><rect x="748" y="642" width="41" height="257" fill="#26445f"/><rect x="794" y="601" width="41" height="298" fill="#26445f"/><rect x="330" y="360" width="150" height="540" fill="#1a3247"/><rect x="-20" y="621" width="44" height="318" fill="#16283a"/><rect x="4" y="633" width="6" height="9" fill="#bfe6ff" opacity="0.34"/><rect x="4" y="653" width="6" height="9" fill="#bfe6ff" opacity="0.47"/><rect x="4" y="673" width="6" height="9" fill="#bfe6ff" opacity="0.44"/><rect x="4" y="693" width="6" height="9" fill="#bfe6ff" opacity="0.32"/><rect x="-12" y="713" width="6" height="9" fill="#bfe6ff" opacity="0.47"/><rect x="4" y="713" width="6" height="9" fill="#bfe6ff" opacity="0.45"/><rect x="4" y="733" width="6" height="9" fill="#bfe6ff" opacity="0.33"/><rect x="4" y="753" width="6" height="9" fill="#bfe6ff" opacity="0.40"/><rect x="-12" y="773" width="6" height="9" fill="#bfe6ff" opacity="0.46"/><rect x="4" y="773" width="6" height="9" fill="#bfe6ff" opacity="0.48"/><rect x="4" y="793" width="6" height="9" fill="#bfe6ff" opacity="0.43"/><rect x="4" y="853" width="6" height="9" fill="#bfe6ff" opacity="0.32"/><rect x="-12" y="873" width="6" height="9" fill="#bfe6ff" opacity="0.35"/><rect x="31" y="634" width="36" height="305" fill="#16283a"/><rect x="55" y="666" width="6" height="9" fill="#bfe6ff" opacity="0.28"/><rect x="55" y="686" width="6" height="9" fill="#bfe6ff" opacity="0.38"/><rect x="39" y="706" width="6" height="9" fill="#bfe6ff" opacity="0.31"/><rect x="39" y="766" width="6" height="9" fill="#bfe6ff" opacity="0.38"/><rect x="55" y="786" width="6" height="9" fill="#bfe6ff" opacity="0.30"/><rect x="39" y="806" width="6" height="9" fill="#bfe6ff" opacity="0.32"/><rect x="39" y="826" width="6" height="9" fill="#bfe6ff" opacity="0.32"/><rect x="39" y="846" width="6" height="9" fill="#bfe6ff" opacity="0.49"/><rect x="55" y="866" width="6" height="9" fill="#bfe6ff" opacity="0.33"/><rect x="39" y="886" width="6" height="9" fill="#bfe6ff" opacity="0.29"/><rect x="70" y="580" width="38" height="359" fill="#16283a"/><rect x="94" y="592" width="6" height="9" fill="#bfe6ff" opacity="0.42"/><rect x="94" y="612" width="6" height="9" fill="#bfe6ff" opacity="0.30"/><rect x="78" y="632" width="6" height="9" fill="#bfe6ff" opacity="0.32"/><rect x="78" y="652" width="6" height="9" fill="#bfe6ff" opacity="0.47"/><rect x="94" y="672" width="6" height="9" fill="#bfe6ff" opacity="0.38"/><rect x="78" y="692" width="6" height="9" fill="#bfe6ff" opacity="0.41"/><rect x="94" y="692" width="6" height="9" fill="#bfe6ff" opacity="0.46"/><rect x="94" y="712" width="6" height="9" fill="#bfe6ff" opacity="0.35"/><rect x="78" y="732" width="6" height="9" fill="#bfe6ff" opacity="0.41"/><rect x="78" y="772" width="6" height="9" fill="#bfe6ff" opacity="0.26"/><rect x="94" y="772" width="6" height="9" fill="#bfe6ff" opacity="0.49"/><rect x="78" y="832" width="6" height="9" fill="#bfe6ff" opacity="0.44"/><rect x="94" y="832" width="6" height="9" fill="#bfe6ff" opacity="0.34"/><rect x="78" y="852" width="6" height="9" fill="#bfe6ff" opacity="0.42"/><rect x="94" y="872" width="6" height="9" fill="#bfe6ff" opacity="0.30"/><rect x="112" y="618" width="73" height="321" fill="#16283a"/><rect x="120" y="630" width="6" height="9" fill="#bfe6ff" opacity="0.26"/><rect x="136" y="650" width="6" height="9" fill="#bfe6ff" opacity="0.47"/><rect x="152" y="650" width="6" height="9" fill="#bfe6ff" opacity="0.32"/><rect x="168" y="650" width="6" height="9" fill="#bfe6ff" opacity="0.48"/><rect x="152" y="670" width="6" height="9" fill="#bfe6ff" opacity="0.48"/><rect x="120" y="690" width="6" height="9" fill="#bfe6ff" opacity="0.32"/><rect x="136" y="690" width="6" height="9" fill="#bfe6ff" opacity="0.27"/><rect x="152" y="690" width="6" height="9" fill="#bfe6ff" opacity="0.39"/><rect x="136" y="710" width="6" height="9" fill="#bfe6ff" opacity="0.46"/><rect x="152" y="710" width="6" height="9" fill="#bfe6ff" opacity="0.25"/><rect x="168" y="710" width="6" height="9" fill="#bfe6ff" opacity="0.39"/><rect x="120" y="730" width="6" height="9" fill="#bfe6ff" opacity="0.30"/><rect x="136" y="730" width="6" height="9" fill="#bfe6ff" opacity="0.27"/><rect x="136" y="750" width="6" height="9" fill="#bfe6ff" opacity="0.44"/><rect x="120" y="770" width="6" height="9" fill="#bfe6ff" opacity="0.45"/><rect x="168" y="770" width="6" height="9" fill="#bfe6ff" opacity="0.45"/><rect x="120" y="790" width="6" height="9" fill="#bfe6ff" opacity="0.30"/><rect x="168" y="790" width="6" height="9" fill="#bfe6ff" opacity="0.26"/><rect x="120" y="810" width="6" height="9" fill="#bfe6ff" opacity="0.44"/><rect x="136" y="810" width="6" height="9" fill="#bfe6ff" opacity="0.39"/><rect x="168" y="810" width="6" height="9" fill="#bfe6ff" opacity="0.35"/><rect x="136" y="830" width="6" height="9" fill="#bfe6ff" opacity="0.28"/><rect x="152" y="830" width="6" height="9" fill="#bfe6ff" opacity="0.34"/><rect x="168" y="830" width="6" height="9" fill="#bfe6ff" opacity="0.49"/><rect x="120" y="850" width="6" height="9" fill="#bfe6ff" opacity="0.47"/><rect x="168" y="850" width="6" height="9" fill="#bfe6ff" opacity="0.27"/><rect x="120" y="870" width="6" height="9" fill="#bfe6ff" opacity="0.29"/><rect x="136" y="870" width="6" height="9" fill="#bfe6ff" opacity="0.35"/><rect x="168" y="870" width="6" height="9" fill="#bfe6ff" opacity="0.43"/><rect x="120" y="890" width="6" height="9" fill="#bfe6ff" opacity="0.30"/><rect x="136" y="890" width="6" height="9" fill="#bfe6ff" opacity="0.39"/><rect x="168" y="890" width="6" height="9" fill="#bfe6ff" opacity="0.36"/><rect x="188" y="561" width="60" height="378" fill="#16283a"/><rect x="212" y="573" width="6" height="9" fill="#bfe6ff" opacity="0.41"/><rect x="212" y="593" width="6" height="9" fill="#bfe6ff" opacity="0.29"/><rect x="196" y="613" width="6" height="9" fill="#bfe6ff" opacity="0.33"/><rect x="228" y="613" width="6" height="9" fill="#bfe6ff" opacity="0.40"/><rect x="196" y="633" width="6" height="9" fill="#bfe6ff" opacity="0.40"/><rect x="212" y="633" width="6" height="9" fill="#bfe6ff" opacity="0.29"/><rect x="228" y="633" width="6" height="9" fill="#bfe6ff" opacity="0.28"/><rect x="212" y="673" width="6" height="9" fill="#bfe6ff" opacity="0.37"/><rect x="212" y="693" width="6" height="9" fill="#bfe6ff" opacity="0.41"/><rect x="228" y="693" width="6" height="9" fill="#bfe6ff" opacity="0.32"/><rect x="196" y="713" width="6" height="9" fill="#bfe6ff" opacity="0.26"/><rect x="196" y="733" width="6" height="9" fill="#bfe6ff" opacity="0.41"/><rect x="212" y="733" width="6" height="9" fill="#bfe6ff" opacity="0.28"/><rect x="196" y="753" width="6" height="9" fill="#bfe6ff" opacity="0.27"/><rect x="212" y="753" width="6" height="9" fill="#bfe6ff" opacity="0.31"/><rect x="196" y="773" width="6" height="9" fill="#bfe6ff" opacity="0.30"/><rect x="212" y="773" width="6" height="9" fill="#bfe6ff" opacity="0.37"/><rect x="228" y="793" width="6" height="9" fill="#bfe6ff" opacity="0.39"/><rect x="212" y="813" width="6" height="9" fill="#bfe6ff" opacity="0.30"/><rect x="212" y="833" width="6" height="9" fill="#bfe6ff" opacity="0.27"/><rect x="228" y="833" width="6" height="9" fill="#bfe6ff" opacity="0.33"/><rect x="196" y="853" width="6" height="9" fill="#bfe6ff" opacity="0.34"/><rect x="212" y="873" width="6" height="9" fill="#bfe6ff" opacity="0.39"/><rect x="253" y="568" width="62" height="371" fill="#16283a"/><rect x="277" y="580" width="6" height="9" fill="#bfe6ff" opacity="0.39"/><rect x="293" y="580" width="6" height="9" fill="#bfe6ff" opacity="0.37"/><rect x="261" y="600" width="6" height="9" fill="#bfe6ff" opacity="0.29"/><rect x="277" y="600" width="6" height="9" fill="#bfe6ff" opacity="0.34"/><rect x="293" y="600" width="6" height="9" fill="#bfe6ff" opacity="0.50"/><rect x="277" y="620" width="6" height="9" fill="#bfe6ff" opacity="0.40"/><rect x="293" y="620" width="6" height="9" fill="#bfe6ff" opacity="0.45"/><rect x="293" y="640" width="6" height="9" fill="#bfe6ff" opacity="0.48"/><rect x="261" y="660" width="6" height="9" fill="#bfe6ff" opacity="0.37"/><rect x="261" y="680" width="6" height="9" fill="#bfe6ff" opacity="0.33"/><rect x="277" y="680" width="6" height="9" fill="#bfe6ff" opacity="0.39"/><rect x="293" y="680" width="6" height="9" fill="#bfe6ff" opacity="0.43"/><rect x="293" y="700" width="6" height="9" fill="#bfe6ff" opacity="0.48"/><rect x="261" y="720" width="6" height="9" fill="#bfe6ff" opacity="0.35"/><rect x="261" y="740" width="6" height="9" fill="#bfe6ff" opacity="0.40"/><rect x="277" y="740" width="6" height="9" fill="#bfe6ff" opacity="0.37"/><rect x="293" y="740" width="6" height="9" fill="#bfe6ff" opacity="0.38"/><rect x="277" y="780" width="6" height="9" fill="#bfe6ff" opacity="0.44"/><rect x="293" y="780" width="6" height="9" fill="#bfe6ff" opacity="0.30"/><rect x="261" y="800" width="6" height="9" fill="#bfe6ff" opacity="0.35"/><rect x="277" y="800" width="6" height="9" fill="#bfe6ff" opacity="0.38"/><rect x="277" y="820" width="6" height="9" fill="#bfe6ff" opacity="0.38"/><rect x="277" y="840" width="6" height="9" fill="#bfe6ff" opacity="0.39"/><rect x="293" y="840" width="6" height="9" fill="#bfe6ff" opacity="0.49"/><rect x="277" y="860" width="6" height="9" fill="#bfe6ff" opacity="0.34"/><rect x="293" y="860" width="6" height="9" fill="#bfe6ff" opacity="0.32"/><rect x="261" y="880" width="6" height="9" fill="#bfe6ff" opacity="0.32"/><rect x="293" y="880" width="6" height="9" fill="#bfe6ff" opacity="0.36"/><rect x="325" y="614" width="48" height="325" fill="#16283a"/><rect x="333" y="626" width="6" height="9" fill="#bfe6ff" opacity="0.48"/><rect x="349" y="626" width="6" height="9" fill="#bfe6ff" opacity="0.38"/><rect x="365" y="626" width="6" height="9" fill="#bfe6ff" opacity="0.39"/><rect x="333" y="646" width="6" height="9" fill="#bfe6ff" opacity="0.40"/><rect x="333" y="666" width="6" height="9" fill="#bfe6ff" opacity="0.35"/><rect x="349" y="666" width="6" height="9" fill="#bfe6ff" opacity="0.43"/><rect x="365" y="666" width="6" height="9" fill="#bfe6ff" opacity="0.28"/><rect x="333" y="686" width="6" height="9" fill="#bfe6ff" opacity="0.47"/><rect x="365" y="686" width="6" height="9" fill="#bfe6ff" opacity="0.43"/><rect x="333" y="706" width="6" height="9" fill="#bfe6ff" opacity="0.44"/><rect x="365" y="706" width="6" height="9" fill="#bfe6ff" opacity="0.26"/><rect x="333" y="726" width="6" height="9" fill="#bfe6ff" opacity="0.28"/><rect x="349" y="726" width="6" height="9" fill="#bfe6ff" opacity="0.29"/><rect x="365" y="726" width="6" height="9" fill="#bfe6ff" opacity="0.48"/><rect x="333" y="746" width="6" height="9" fill="#bfe6ff" opacity="0.40"/><rect x="349" y="746" width="6" height="9" fill="#bfe6ff" opacity="0.40"/><rect x="365" y="746" width="6" height="9" fill="#bfe6ff" opacity="0.43"/><rect x="349" y="766" width="6" height="9" fill="#bfe6ff" opacity="0.46"/><rect x="365" y="766" width="6" height="9" fill="#bfe6ff" opacity="0.27"/><rect x="349" y="786" width="6" height="9" fill="#bfe6ff" opacity="0.30"/><rect x="333" y="806" width="6" height="9" fill="#bfe6ff" opacity="0.44"/><rect x="349" y="806" width="6" height="9" fill="#bfe6ff" opacity="0.41"/><rect x="365" y="806" width="6" height="9" fill="#bfe6ff" opacity="0.44"/><rect x="333" y="826" width="6" height="9" fill="#bfe6ff" opacity="0.50"/><rect x="365" y="826" width="6" height="9" fill="#bfe6ff" opacity="0.38"/><rect x="349" y="846" width="6" height="9" fill="#bfe6ff" opacity="0.35"/><rect x="365" y="846" width="6" height="9" fill="#bfe6ff" opacity="0.30"/><rect x="333" y="866" width="6" height="9" fill="#bfe6ff" opacity="0.48"/><rect x="349" y="866" width="6" height="9" fill="#bfe6ff" opacity="0.40"/><rect x="365" y="866" width="6" height="9" fill="#bfe6ff" opacity="0.31"/><rect x="333" y="886" width="6" height="9" fill="#bfe6ff" opacity="0.47"/><rect x="349" y="886" width="6" height="9" fill="#bfe6ff" opacity="0.37"/><rect x="384" y="537" width="63" height="402" fill="#16283a"/><rect x="392" y="549" width="6" height="9" fill="#bfe6ff" opacity="0.36"/><rect x="408" y="549" width="6" height="9" fill="#bfe6ff" opacity="0.48"/><rect x="408" y="569" width="6" height="9" fill="#bfe6ff" opacity="0.30"/><rect x="424" y="569" width="6" height="9" fill="#bfe6ff" opacity="0.46"/><rect x="392" y="589" width="6" height="9" fill="#bfe6ff" opacity="0.34"/><rect x="424" y="589" width="6" height="9" fill="#bfe6ff" opacity="0.29"/><rect x="392" y="609" width="6" height="9" fill="#bfe6ff" opacity="0.28"/><rect x="408" y="609" width="6" height="9" fill="#bfe6ff" opacity="0.36"/><rect x="424" y="609" width="6" height="9" fill="#bfe6ff" opacity="0.40"/><rect x="392" y="629" width="6" height="9" fill="#bfe6ff" opacity="0.48"/><rect x="408" y="649" width="6" height="9" fill="#bfe6ff" opacity="0.42"/><rect x="424" y="649" width="6" height="9" fill="#bfe6ff" opacity="0.44"/><rect x="392" y="669" width="6" height="9" fill="#bfe6ff" opacity="0.31"/><rect x="408" y="669" width="6" height="9" fill="#bfe6ff" opacity="0.39"/><rect x="424" y="669" width="6" height="9" fill="#bfe6ff" opacity="0.32"/><rect x="392" y="689" width="6" height="9" fill="#bfe6ff" opacity="0.30"/><rect x="408" y="689" width="6" height="9" fill="#bfe6ff" opacity="0.28"/><rect x="424" y="689" width="6" height="9" fill="#bfe6ff" opacity="0.29"/><rect x="392" y="709" width="6" height="9" fill="#bfe6ff" opacity="0.32"/><rect x="408" y="709" width="6" height="9" fill="#bfe6ff" opacity="0.28"/><rect x="392" y="729" width="6" height="9" fill="#bfe6ff" opacity="0.46"/><rect x="408" y="729" width="6" height="9" fill="#bfe6ff" opacity="0.35"/><rect x="424" y="729" width="6" height="9" fill="#bfe6ff" opacity="0.31"/><rect x="392" y="749" width="6" height="9" fill="#bfe6ff" opacity="0.32"/><rect x="424" y="749" width="6" height="9" fill="#bfe6ff" opacity="0.30"/><rect x="424" y="769" width="6" height="9" fill="#bfe6ff" opacity="0.25"/><rect x="392" y="789" width="6" height="9" fill="#bfe6ff" opacity="0.39"/><rect x="408" y="789" width="6" height="9" fill="#bfe6ff" opacity="0.28"/><rect x="424" y="789" width="6" height="9" fill="#bfe6ff" opacity="0.35"/><rect x="392" y="809" width="6" height="9" fill="#bfe6ff" opacity="0.35"/><rect x="392" y="829" width="6" height="9" fill="#bfe6ff" opacity="0.49"/><rect x="408" y="829" width="6" height="9" fill="#bfe6ff" opacity="0.28"/><rect x="392" y="849" width="6" height="9" fill="#bfe6ff" opacity="0.39"/><rect x="408" y="849" width="6" height="9" fill="#bfe6ff" opacity="0.48"/><rect x="408" y="869" width="6" height="9" fill="#bfe6ff" opacity="0.49"/><rect x="424" y="889" width="6" height="9" fill="#bfe6ff" opacity="0.34"/><rect x="458" y="556" width="75" height="383" fill="#16283a"/><rect x="498" y="568" width="6" height="9" fill="#bfe6ff" opacity="0.48"/><rect x="466" y="588" width="6" height="9" fill="#bfe6ff" opacity="0.33"/><rect x="482" y="588" width="6" height="9" fill="#bfe6ff" opacity="0.26"/><rect x="466" y="608" width="6" height="9" fill="#bfe6ff" opacity="0.41"/><rect x="482" y="608" width="6" height="9" fill="#bfe6ff" opacity="0.37"/><rect x="498" y="608" width="6" height="9" fill="#bfe6ff" opacity="0.37"/><rect x="514" y="608" width="6" height="9" fill="#bfe6ff" opacity="0.30"/><rect x="466" y="628" width="6" height="9" fill="#bfe6ff" opacity="0.29"/><rect x="482" y="628" width="6" height="9" fill="#bfe6ff" opacity="0.33"/><rect x="466" y="648" width="6" height="9" fill="#bfe6ff" opacity="0.31"/><rect x="482" y="648" width="6" height="9" fill="#bfe6ff" opacity="0.36"/><rect x="498" y="648" width="6" height="9" fill="#bfe6ff" opacity="0.46"/><rect x="514" y="648" width="6" height="9" fill="#bfe6ff" opacity="0.36"/><rect x="482" y="668" width="6" height="9" fill="#bfe6ff" opacity="0.29"/><rect x="498" y="668" width="6" height="9" fill="#bfe6ff" opacity="0.27"/><rect x="482" y="708" width="6" height="9" fill="#bfe6ff" opacity="0.35"/><rect x="498" y="708" width="6" height="9" fill="#bfe6ff" opacity="0.33"/><rect x="482" y="728" width="6" height="9" fill="#bfe6ff" opacity="0.38"/><rect x="514" y="728" width="6" height="9" fill="#bfe6ff" opacity="0.40"/><rect x="498" y="748" width="6" height="9" fill="#bfe6ff" opacity="0.30"/><rect x="514" y="748" width="6" height="9" fill="#bfe6ff" opacity="0.34"/><rect x="482" y="768" width="6" height="9" fill="#bfe6ff" opacity="0.35"/><rect x="482" y="788" width="6" height="9" fill="#bfe6ff" opacity="0.33"/><rect x="498" y="788" width="6" height="9" fill="#bfe6ff" opacity="0.33"/><rect x="514" y="788" width="6" height="9" fill="#bfe6ff" opacity="0.49"/><rect x="466" y="808" width="6" height="9" fill="#bfe6ff" opacity="0.38"/><rect x="482" y="808" width="6" height="9" fill="#bfe6ff" opacity="0.33"/><rect x="514" y="808" width="6" height="9" fill="#bfe6ff" opacity="0.47"/><rect x="482" y="828" width="6" height="9" fill="#bfe6ff" opacity="0.34"/><rect x="498" y="828" width="6" height="9" fill="#bfe6ff" opacity="0.42"/><rect x="514" y="828" width="6" height="9" fill="#bfe6ff" opacity="0.39"/><rect x="482" y="848" width="6" height="9" fill="#bfe6ff" opacity="0.42"/><rect x="498" y="848" width="6" height="9" fill="#bfe6ff" opacity="0.32"/><rect x="514" y="848" width="6" height="9" fill="#bfe6ff" opacity="0.41"/><rect x="482" y="868" width="6" height="9" fill="#bfe6ff" opacity="0.35"/><rect x="466" y="888" width="6" height="9" fill="#bfe6ff" opacity="0.38"/><rect x="482" y="888" width="6" height="9" fill="#bfe6ff" opacity="0.35"/><rect x="514" y="888" width="6" height="9" fill="#bfe6ff" opacity="0.35"/><rect x="543" y="614" width="64" height="325" fill="#16283a"/><rect x="567" y="626" width="6" height="9" fill="#bfe6ff" opacity="0.27"/><rect x="599" y="626" width="6" height="9" fill="#bfe6ff" opacity="0.47"/><rect x="583" y="646" width="6" height="9" fill="#bfe6ff" opacity="0.45"/><rect x="599" y="646" width="6" height="9" fill="#bfe6ff" opacity="0.44"/><rect x="551" y="666" width="6" height="9" fill="#bfe6ff" opacity="0.26"/><rect x="551" y="686" width="6" height="9" fill="#bfe6ff" opacity="0.45"/><rect x="599" y="686" width="6" height="9" fill="#bfe6ff" opacity="0.33"/><rect x="551" y="706" width="6" height="9" fill="#bfe6ff" opacity="0.32"/><rect x="583" y="706" width="6" height="9" fill="#bfe6ff" opacity="0.47"/><rect x="599" y="706" width="6" height="9" fill="#bfe6ff" opacity="0.45"/><rect x="551" y="726" width="6" height="9" fill="#bfe6ff" opacity="0.31"/><rect x="567" y="726" width="6" height="9" fill="#bfe6ff" opacity="0.35"/><rect x="551" y="746" width="6" height="9" fill="#bfe6ff" opacity="0.48"/><rect x="599" y="746" width="6" height="9" fill="#bfe6ff" opacity="0.35"/><rect x="567" y="766" width="6" height="9" fill="#bfe6ff" opacity="0.42"/><rect x="583" y="766" width="6" height="9" fill="#bfe6ff" opacity="0.45"/><rect x="567" y="786" width="6" height="9" fill="#bfe6ff" opacity="0.41"/><rect x="583" y="786" width="6" height="9" fill="#bfe6ff" opacity="0.46"/><rect x="551" y="806" width="6" height="9" fill="#bfe6ff" opacity="0.35"/><rect x="567" y="806" width="6" height="9" fill="#bfe6ff" opacity="0.34"/><rect x="583" y="806" width="6" height="9" fill="#bfe6ff" opacity="0.33"/><rect x="599" y="806" width="6" height="9" fill="#bfe6ff" opacity="0.34"/><rect x="567" y="826" width="6" height="9" fill="#bfe6ff" opacity="0.27"/><rect x="599" y="826" width="6" height="9" fill="#bfe6ff" opacity="0.45"/><rect x="551" y="846" width="6" height="9" fill="#bfe6ff" opacity="0.35"/><rect x="583" y="846" width="6" height="9" fill="#bfe6ff" opacity="0.48"/><rect x="599" y="846" width="6" height="9" fill="#bfe6ff" opacity="0.32"/><rect x="567" y="866" width="6" height="9" fill="#bfe6ff" opacity="0.49"/><rect x="551" y="886" width="6" height="9" fill="#bfe6ff" opacity="0.45"/><rect x="567" y="886" width="6" height="9" fill="#bfe6ff" opacity="0.39"/><rect x="599" y="886" width="6" height="9" fill="#bfe6ff" opacity="0.39"/><rect x="611" y="583" width="34" height="356" fill="#16283a"/><rect x="635" y="595" width="6" height="9" fill="#bfe6ff" opacity="0.26"/><rect x="619" y="615" width="6" height="9" fill="#bfe6ff" opacity="0.50"/><rect x="635" y="615" width="6" height="9" fill="#bfe6ff" opacity="0.39"/><rect x="619" y="695" width="6" height="9" fill="#bfe6ff" opacity="0.41"/><rect x="635" y="715" width="6" height="9" fill="#bfe6ff" opacity="0.36"/><rect x="619" y="755" width="6" height="9" fill="#bfe6ff" opacity="0.45"/><rect x="619" y="775" width="6" height="9" fill="#bfe6ff" opacity="0.36"/><rect x="619" y="795" width="6" height="9" fill="#bfe6ff" opacity="0.43"/><rect x="635" y="795" width="6" height="9" fill="#bfe6ff" opacity="0.47"/><rect x="635" y="835" width="6" height="9" fill="#bfe6ff" opacity="0.42"/><rect x="635" y="855" width="6" height="9" fill="#bfe6ff" opacity="0.26"/><rect x="619" y="875" width="6" height="9" fill="#bfe6ff" opacity="0.30"/><rect x="653" y="609" width="60" height="330" fill="#16283a"/><rect x="661" y="621" width="6" height="9" fill="#bfe6ff" opacity="0.45"/><rect x="677" y="621" width="6" height="9" fill="#bfe6ff" opacity="0.36"/><rect x="693" y="621" width="6" height="9" fill="#bfe6ff" opacity="0.30"/><rect x="677" y="641" width="6" height="9" fill="#bfe6ff" opacity="0.46"/><rect x="693" y="641" width="6" height="9" fill="#bfe6ff" opacity="0.35"/><rect x="677" y="661" width="6" height="9" fill="#bfe6ff" opacity="0.28"/><rect x="693" y="661" width="6" height="9" fill="#bfe6ff" opacity="0.35"/><rect x="661" y="681" width="6" height="9" fill="#bfe6ff" opacity="0.37"/><rect x="677" y="681" width="6" height="9" fill="#bfe6ff" opacity="0.27"/><rect x="693" y="681" width="6" height="9" fill="#bfe6ff" opacity="0.37"/><rect x="661" y="701" width="6" height="9" fill="#bfe6ff" opacity="0.33"/><rect x="677" y="701" width="6" height="9" fill="#bfe6ff" opacity="0.46"/><rect x="677" y="721" width="6" height="9" fill="#bfe6ff" opacity="0.46"/><rect x="693" y="721" width="6" height="9" fill="#bfe6ff" opacity="0.35"/><rect x="661" y="741" width="6" height="9" fill="#bfe6ff" opacity="0.37"/><rect x="693" y="781" width="6" height="9" fill="#bfe6ff" opacity="0.27"/><rect x="661" y="821" width="6" height="9" fill="#bfe6ff" opacity="0.41"/><rect x="677" y="821" width="6" height="9" fill="#bfe6ff" opacity="0.26"/><rect x="693" y="821" width="6" height="9" fill="#bfe6ff" opacity="0.43"/><rect x="677" y="841" width="6" height="9" fill="#bfe6ff" opacity="0.40"/><rect x="693" y="841" width="6" height="9" fill="#bfe6ff" opacity="0.37"/><rect x="661" y="861" width="6" height="9" fill="#bfe6ff" opacity="0.43"/><rect x="677" y="861" width="6" height="9" fill="#bfe6ff" opacity="0.25"/><rect x="693" y="861" width="6" height="9" fill="#bfe6ff" opacity="0.29"/><rect x="661" y="881" width="6" height="9" fill="#bfe6ff" opacity="0.30"/><rect x="677" y="881" width="6" height="9" fill="#bfe6ff" opacity="0.28"/><rect x="719" y="541" width="59" height="398" fill="#16283a"/><rect x="743" y="553" width="6" height="9" fill="#bfe6ff" opacity="0.48"/><rect x="759" y="553" width="6" height="9" fill="#bfe6ff" opacity="0.29"/><rect x="727" y="573" width="6" height="9" fill="#bfe6ff" opacity="0.48"/><rect x="743" y="573" width="6" height="9" fill="#bfe6ff" opacity="0.29"/><rect x="759" y="573" width="6" height="9" fill="#bfe6ff" opacity="0.43"/><rect x="727" y="593" width="6" height="9" fill="#bfe6ff" opacity="0.41"/><rect x="743" y="593" width="6" height="9" fill="#bfe6ff" opacity="0.48"/><rect x="759" y="593" width="6" height="9" fill="#bfe6ff" opacity="0.49"/><rect x="727" y="633" width="6" height="9" fill="#bfe6ff" opacity="0.36"/><rect x="743" y="633" width="6" height="9" fill="#bfe6ff" opacity="0.33"/><rect x="759" y="633" width="6" height="9" fill="#bfe6ff" opacity="0.34"/><rect x="759" y="653" width="6" height="9" fill="#bfe6ff" opacity="0.41"/><rect x="759" y="673" width="6" height="9" fill="#bfe6ff" opacity="0.37"/><rect x="727" y="693" width="6" height="9" fill="#bfe6ff" opacity="0.28"/><rect x="759" y="693" width="6" height="9" fill="#bfe6ff" opacity="0.36"/><rect x="727" y="713" width="6" height="9" fill="#bfe6ff" opacity="0.39"/><rect x="743" y="713" width="6" height="9" fill="#bfe6ff" opacity="0.43"/><rect x="743" y="733" width="6" height="9" fill="#bfe6ff" opacity="0.33"/><rect x="743" y="753" width="6" height="9" fill="#bfe6ff" opacity="0.37"/><rect x="759" y="753" width="6" height="9" fill="#bfe6ff" opacity="0.41"/><rect x="759" y="773" width="6" height="9" fill="#bfe6ff" opacity="0.28"/><rect x="743" y="793" width="6" height="9" fill="#bfe6ff" opacity="0.46"/><rect x="759" y="793" width="6" height="9" fill="#bfe6ff" opacity="0.42"/><rect x="727" y="813" width="6" height="9" fill="#bfe6ff" opacity="0.49"/><rect x="743" y="813" width="6" height="9" fill="#bfe6ff" opacity="0.37"/><rect x="759" y="813" width="6" height="9" fill="#bfe6ff" opacity="0.46"/><rect x="727" y="833" width="6" height="9" fill="#bfe6ff" opacity="0.36"/><rect x="743" y="833" width="6" height="9" fill="#bfe6ff" opacity="0.45"/><rect x="759" y="853" width="6" height="9" fill="#bfe6ff" opacity="0.26"/><rect x="759" y="873" width="6" height="9" fill="#bfe6ff" opacity="0.38"/><rect x="784" y="587" width="35" height="352" fill="#16283a"/><rect x="808" y="599" width="6" height="9" fill="#bfe6ff" opacity="0.36"/><rect x="792" y="619" width="6" height="9" fill="#bfe6ff" opacity="0.45"/><rect x="808" y="619" width="6" height="9" fill="#bfe6ff" opacity="0.36"/><rect x="792" y="639" width="6" height="9" fill="#bfe6ff" opacity="0.45"/><rect x="808" y="639" width="6" height="9" fill="#bfe6ff" opacity="0.37"/><rect x="808" y="659" width="6" height="9" fill="#bfe6ff" opacity="0.46"/><rect x="792" y="699" width="6" height="9" fill="#bfe6ff" opacity="0.37"/><rect x="808" y="719" width="6" height="9" fill="#bfe6ff" opacity="0.45"/><rect x="792" y="739" width="6" height="9" fill="#bfe6ff" opacity="0.34"/><rect x="808" y="739" width="6" height="9" fill="#bfe6ff" opacity="0.40"/><rect x="792" y="759" width="6" height="9" fill="#bfe6ff" opacity="0.47"/><rect x="808" y="759" width="6" height="9" fill="#bfe6ff" opacity="0.44"/><rect x="792" y="799" width="6" height="9" fill="#bfe6ff" opacity="0.48"/><rect x="808" y="839" width="6" height="9" fill="#bfe6ff" opacity="0.33"/><rect x="792" y="859" width="6" height="9" fill="#bfe6ff" opacity="0.49"/><rect x="808" y="879" width="6" height="9" fill="#bfe6ff" opacity="0.45"/><rect x="378" y="430" width="54" height="18" fill="#e64b4b"/><rect x="396" y="412" width="18" height="54" fill="#e64b4b"/><rect width="800" height="1200" fill="url(#vg)"/><defs><linearGradient id="vg" x1="0" y1="0" x2="0" y2="1"><stop offset="0" stop-color="#060a10" stop-opacity=".35"/><stop offset=".35" stop-color="#060a10" stop-opacity="0"/><stop offset=".72" stop-color="#060a10" stop-opacity=".25"/><stop offset="1" stop-color="#060a10" stop-opacity=".9"/></linearGradient></defs></svg>